Coordinates
version=1
nRows=9
nColumns=42
inDegrees=yes

Units are S.I. units (second, meters, Newtons, ...)
If the header above contains a line with 'inDegrees', this indicates whether rotational values are in degrees (yes) or radians (no).

endheader
time	pelvis_tilt	pelvis_list	pelvis_rotation	pelvis_tx	pelvis_ty	pelvis_tz	hip_flexion_r	hip_adduction_r	hip_rotation_r	knee_angle_r	knee_adduction_r	knee_angle_r_beta	ankle_angle_r	subtalar_angle_r	mtp_angle_r	hip_flexion_l	hip_adduction_l	hip_rotation_l	knee_angle_l	knee_adduction_l	knee_angle_l_beta	ankle_angle_l	subtalar_angle_l	mtp_angle_l	lumbar_extension	lumbar_bending	lumbar_rotation	arm_flex_r	arm_add_r	arm_rot_r	elbow_flex_r	pro_sup_r	wrist_flex_r	wrist_dev_r	arm_flex_l	arm_add_l	arm_rot_l	elbow_flex_l	pro_sup_l	wrist_flex_l	wrist_dev_l
      0.90000000	     15.07418355	     -2.44272516	     -2.93103690	     -0.08213729	      0.97197315	     -0.10357909	    -28.48910239	      7.08853359	     -6.11022193	      3.43197699	     -0.89604453	      0.05989930	     13.91245324	     10.09043767	     -7.74005925	     10.22646623	     -3.21109458	     -2.58779359	     16.60810836	      2.39651344	      0.28986617	     -0.46066826	      2.67885912	     -7.74005925	    -38.02570184	      3.20267227	     10.22617504	      5.89197824	    -23.23425489	     -0.31695834	     72.58194692	     90.00000001	      0.00000000	      0.00000000	     -7.31850364	    -13.98060366	     -2.64815210	     51.65609904	     90.00000001	      0.00000000	      0.00000000
      0.91000000	     14.83962926	     -2.85840706	     -3.55612610	     -0.06881957	      0.96895359	     -0.10263652	    -28.92271450	      7.21992156	     -5.79231109	      3.97345263	     -0.91209286	      0.06934983	     14.61980448	     10.17888101	     -7.73462764	     10.50784932	     -3.61410383	     -4.09944358	     13.89460606	      2.32562408	      0.24250662	     -0.85484398	      4.25326371	     -7.73462764	    -37.88780618	      3.30421553	     10.75822394	      6.29661288	    -23.52709230	      0.17906047	     72.58617493	     90.00000001	      0.00000000	      0.00000000	     -7.85825696	    -13.64873975	     -2.97253208	     51.59708109	     90.00000001	      0.00000000	      0.00000000
      0.92000000	     14.57918819	     -3.14401434	     -4.17040811	     -0.05516485	      0.96581024	     -0.10196441	    -29.16605406	      7.15892161	     -6.18937200	      4.89324517	     -0.96618708	      0.08540324	     15.62781462	     11.10347466	     -7.71902169	     11.01183624	     -3.76510941	     -6.45814830	     12.02619728	      1.87837381	      0.20989674	     -0.69715260	      6.83195022	     -7.71902169	    -37.66843220	      3.32184242	     11.16259690	      6.68697764	    -23.75289340	      0.65255924	     72.51316234	     90.00000001	      0.00000000	      0.00000000	     -8.46388704	    -13.26994648	     -3.44913095	     51.59668879	     90.00000001	      0.00000000	      0.00000000
      0.93000000	     14.04503461	     -3.66214290	     -4.50666467	     -0.04169412	      0.96235224	     -0.10146022	    -29.26411594	      7.51526419	     -6.21654605	      5.47708338	     -1.07282864	      0.09559314	     16.03518927	     11.21872193	     -7.71595987	     11.85671787	     -4.20300511	     -7.44605453	     10.65767510	      1.87705987	      0.18601152	     -0.51982871	      7.05215506	     -7.71595987	    -37.19971353	      3.72471479	     11.56679173	      6.96435838	    -23.86561838	      0.79468532	     72.45918252	     90.00000001	      0.00000000	      0.00000000	     -8.95418010	    -13.04876867	     -3.43487052	     51.53007482	     90.00000001	      0.00000000	      0.00000000
      0.94000000	     13.89971806	     -3.79808127	     -5.34716105	     -0.02771520	      0.95965913	     -0.10055266	    -29.40129654	      7.12554661	     -7.14258698	      6.92053228	     -1.35343428	      0.12078607	     17.53123735	     13.95841302	     -7.69846567	     11.96142198	     -4.27996676	     -9.45773977	      9.29066569	      1.79440004	      0.16215271	     -0.21557206	      8.97297029	     -7.69846567	    -37.08659104	      3.45933396	     12.08660451	      7.30304282	    -24.09778701	      1.30261426	     72.20190586	     90.00000001	      0.00000000	      0.00000000	     -9.43361867	    -12.71405326	     -3.77920314	     51.45656878	     90.00000001	      0.00000000	      0.00000000
      0.95000000	     13.48446757	     -4.10806787	     -5.95213430	     -0.01394788	      0.95681379	     -0.09976886	    -29.48662735	      7.04983089	     -7.07452273	      7.86130803	     -1.48834421	      0.13720571	     18.03210647	     14.43037533	     -7.69479466	     12.46631347	     -4.53998109	    -10.47391609	      8.59588419	      1.86184746	      0.15002648	      0.06313462	      8.95660429	     -7.69479466	    -36.74321087	      3.49674088	     12.55738578	      7.58700285	    -24.17250138	      1.51689449	     71.92700979	     90.00000001	      0.00000000	      0.00000000	     -9.78311061	    -12.46513494	     -3.83085340	     51.26493486	     90.00000001	      0.00000000	      0.00000000
      0.96000000	     12.94536067	     -4.29542895	     -6.18065242	      0.00010762	      0.95384797	     -0.09963579	    -29.54247471	      6.99187746	     -7.06400383	      8.54791297	     -1.54371734	      0.14918923	     18.02374582	     14.53558780	     -7.69381314	     13.22269436	     -4.52917621	    -10.70501317	      8.48629283	      1.80929674	      0.14811375	      0.14522689	      8.86304585	     -7.69381314	    -36.21454885	      3.63584824	     12.67390569	      7.63097295	    -24.14639209	      1.52138773	     71.86735232	     90.00000001	      0.00000000	      0.00000000	    -10.15116873	    -12.30604113	     -3.79514066	     51.13861854	     90.00000001	      0.00000000	      0.00000000
      0.97000000	     12.98062457	     -4.11437775	     -7.10889323	      0.01477316	      0.95189443	     -0.09876871	    -29.56864149	      5.97893233	     -9.05823510	     10.53997485	     -1.91015269	      0.18395726	     19.64563660	     19.06994801	     -7.68021650	     13.26397629	     -4.21609988	    -12.97416391	      8.96265365	      1.45490660	      0.15642782	      0.82556582	      9.87689314	     -7.68021650	    -36.18701597	      2.99947548	     13.03516358	      7.92924167	    -24.14819274	      1.87649121	     71.33891495	     90.00000001	      0.00000000	      0.00000000	    -10.43535478	    -12.08638898	     -4.05193881	     50.90580377	     90.00000001	      0.00000000	      0.00000000
      0.98000000	     12.63480788	     -4.16966946	     -7.61458068	      0.02919323	      0.94972874	     -0.09819923	    -29.60138429	      5.54292719	     -9.01480138	     11.70099148	     -1.99151343	      0.20422083	     19.62126445	     19.53883411	     -7.67713944	     13.76907290	     -4.16246795	    -13.46877881	      9.83809140	      1.33636365	      0.17170709	      0.99854488	      9.26067623	     -7.67713944	    -35.82182157	      2.82947042	     13.24983585	      8.06161982	    -24.02346316	      1.87306798	     70.94948619	     90.00000001	      0.00000000	      0.00000000	    -10.59521682	    -11.98563129	     -3.93387125	     50.54448969	     90.00000001	      0.00000000	      0.00000000
